<svg xmlns="http://www.w3.org/2000/svg" width="24" height="24" id="apps"><path fill="none" d="M0 0h24v24H0Z" data-name="Path 3624"></path><path fill="#525863" d="M16.362 18.256a1.9 1.9 0 1 1 1.895 1.9 1.894 1.894 0 0 1-1.895-1.9Zm-6.229 0a1.895 1.895 0 1 1 1.895 1.9 1.894 1.894 0 0 1-1.895-1.9Zm-6.232 0a1.9 1.9 0 1 1 1.895 1.9 1.894 1.894 0 0 1-1.896-1.9Zm12.461-6.229a1.9 1.9 0 1 1 1.895 1.894 1.9 1.9 0 0 1-1.895-1.894Zm-6.229 0a1.895 1.895 0 1 1 1.895 1.894 1.9 1.9 0 0 1-1.895-1.894Zm-6.232 0a1.9 1.9 0 1 1 1.895 1.894A1.9 1.9 0 0 1 3.9 12.027Zm12.461-6.233a1.9 1.9 0 1 1 1.895 1.9 1.894 1.894 0 0 1-1.895-1.9Zm-6.229 0a1.895 1.895 0 1 1 1.895 1.9 1.894 1.894 0 0 1-1.895-1.9Zm-6.232 0a1.9 1.9 0 1 1 1.895 1.9 1.894 1.894 0 0 1-1.896-1.9Z" data-name="Path 2657"></path></svg>